<svg xmlns="http://www.w3.org/2000/svg" width="96" height="96" viewBox="0 0 96 96">
<g>
<path d="M 35.24 68.57 C34.50,68.90 33.87,69.18 33.31,69.44 C30.78,70.57 29.94,70.95 29.24,70.77 C28.74,70.63 28.31,70.21 27.38,69.55 C25.83,68.47 25.30,66.97 25.25,63.49 C25.19,59.55 25.53,58.72 27.59,57.78 C31.23,56.12 30.73,52.63 26.49,50.13 C24.56,48.99 22.45,46.81 21.80,45.28 C21.15,43.75 19.71,41.48 18.61,40.22 C16.86,38.24 16.74,37.44 17.66,33.98 C18.48,30.92 18.41,29.41 17.36,27.39 C17.25,27.18 17.14,26.98 17.04,26.79 C16.43,25.62 16.10,25.00 16.18,24.44 C16.29,23.72 17.06,23.10 18.74,21.54 C22.04,18.48 24.09,18.34 26.50,21.00 C27.50,22.10 28.75,23.00 29.28,23.00 C30.58,23.00 37.81,29.55 41.25,33.84 C44.65,38.09 44.71,39.78 41.50,41.00 C39.60,41.72 39.00,42.67 39.00,44.97 C39.00,46.90 38.28,48.43 37.00,49.23 C34.03,51.09 34.57,54.51 38.51,58.88 C42.94,63.78 42.39,65.41 35.24,68.57 Z" fill="rgb(34,152,211)"/>
<path d="M 35.24 68.57 C42.39,65.41 42.94,63.78 38.51,58.88 C34.57,54.51 34.03,51.09 37.00,49.23 C38.28,48.43 39.00,46.90 39.00,44.97 C39.00,42.67 39.60,41.72 41.50,41.00 C44.71,39.78 44.65,38.09 41.25,33.84 C37.81,29.55 30.58,23.00 29.28,23.00 C28.75,23.00 27.50,22.10 26.50,21.00 C25.81,20.24 25.15,19.71 24.48,19.41 C24.76,19.44 25.05,19.48 25.35,19.54 C29.39,20.30 38.30,27.09 43.39,33.30 L 47.08 37.81 L 43.01 44.11 C37.16,53.15 37.02,54.42 41.37,58.87 C43.37,60.91 45.00,63.04 45.00,63.61 C45.00,65.33 39.72,69.73 35.63,71.41 C30.53,73.51 28.42,73.42 26.00,71.00 C22.68,67.68 22.81,58.42 26.22,55.82 L 28.50 54.08 L 24.75 50.96 C18.71,45.96 15.76,39.98 15.71,32.70 C15.69,29.22 15.81,26.89 16.27,25.17 C16.41,25.58 16.67,26.08 17.04,26.79 C17.14,26.98 17.25,27.18 17.36,27.39 C18.41,29.41 18.48,30.92 17.66,33.98 C16.74,37.44 16.86,38.24 18.61,40.22 C19.71,41.48 21.15,43.75 21.80,45.28 C22.45,46.81 24.56,48.99 26.49,50.13 C30.73,52.63 31.23,56.12 27.59,57.78 C25.53,58.72 25.19,59.55 25.25,63.49 C25.30,66.97 25.83,68.47 27.38,69.55 C28.31,70.21 28.74,70.63 29.24,70.77 C29.94,70.95 30.78,70.57 33.31,69.44 C33.87,69.18 34.50,68.90 35.24,68.57 ZM 17.27 22.90 C17.82,22.09 18.56,21.40 19.52,20.70 C19.90,20.43 20.28,20.20 20.65,20.01 C20.06,20.39 19.43,20.90 18.74,21.54 C18.14,22.10 17.65,22.54 17.27,22.90 Z" fill="rgb(44,150,203)"/>
<path d="M 43.77 65.71 C44.53,64.87 45.00,64.12 45.00,63.61 C45.00,63.04 43.37,60.91 41.37,58.87 C37.02,54.42 37.16,53.15 43.01,44.11 L 46.70 38.40 C46.75,39.04 46.50,39.59 46.04,40.33 C45.30,41.52 44.05,43.62 43.27,45.00 L 41.85 47.50 L 43.67 45.04 C55.53,29.03 62.87,21.50 68.49,19.56 C73.41,17.87 75.77,18.57 78.10,22.39 C80.64,26.57 80.62,36.04 78.05,41.70 C76.19,45.80 69.73,53.00 67.91,53.00 C67.41,53.00 67.00,53.45 67.00,54.00 C67.00,54.55 67.66,55.00 68.46,55.00 C69.27,55.00 70.40,55.87 70.96,56.93 C72.53,59.87 72.22,68.24 70.44,70.78 C67.57,74.88 59.87,73.03 51.17,66.16 L 46.85 62.74 ZM 51.37 28.70 C48.55,32.50 46.79,32.61 44.73,29.12 C42.51,25.36 42.55,23.72 44.93,21.57 C47.46,19.27 50.08,19.88 51.95,23.21 C53.34,25.70 53.30,26.12 51.37,28.70 ZM 25.27 78.75 C24.67,80.46 22.06,80.33 21.38,78.55 C20.68,76.73 21.70,75.00 23.45,75.00 C24.98,75.00 25.91,76.91 25.27,78.75 ZM 73.81 77.74 C73.63,78.69 72.75,79.62 71.86,79.79 C69.97,80.15 68.84,77.88 69.99,76.01 C71.11,74.20 74.22,75.60 73.81,77.74 ZM 33.31 23.87 C30.19,21.56 27.24,19.89 25.35,19.54 C27.25,19.89 30.19,21.56 33.31,23.87 ZM 35.63 71.41 C33.04,72.47 31.22,72.97 29.74,72.89 C31.22,72.97 33.04,72.47 35.63,71.41 C35.79,71.34 35.96,71.27 36.13,71.19 C35.95,71.27 35.79,71.35 35.63,71.41 Z" fill="rgb(169,201,233)"/>
<path d="M 0.00 48.00 L 0.00 0.00 L 48.00 0.00 L 96.00 0.00 L 96.00 48.00 L 96.00 96.00 L 48.00 96.00 L 0.00 96.00 L 0.00 48.00 ZM 25.27 78.75 C25.91,76.91 24.98,75.00 23.45,75.00 C21.70,75.00 20.68,76.73 21.38,78.55 C22.06,80.33 24.67,80.46 25.27,78.75 ZM 73.81 77.74 C74.22,75.60 71.11,74.20 69.99,76.01 C68.84,77.88 69.97,80.15 71.86,79.79 C72.75,79.62 73.63,78.69 73.81,77.74 ZM 35.63 71.41 C37.76,70.54 41.15,68.23 43.17,66.28 L 46.85 62.74 L 51.17 66.16 C59.87,73.03 67.57,74.88 70.44,70.78 C72.22,68.24 72.53,59.87 70.96,56.93 C70.40,55.87 69.27,55.00 68.46,55.00 C67.66,55.00 67.00,54.55 67.00,54.00 C67.00,53.45 67.41,53.00 67.91,53.00 C69.73,53.00 76.19,45.80 78.05,41.70 C80.62,36.04 80.64,26.57 78.10,22.39 C75.77,18.57 73.41,17.87 68.49,19.56 C62.87,21.50 55.53,29.03 43.67,45.04 L 41.85 47.50 L 43.27 45.00 C44.05,43.62 45.30,41.52 46.04,40.33 C47.25,38.37 47.02,37.73 43.53,33.48 C38.32,27.11 29.44,20.30 25.35,19.54 C22.94,19.09 21.30,19.41 19.52,20.70 C16.33,23.02 15.66,25.13 15.71,32.70 C15.76,39.98 18.71,45.96 24.75,50.96 L 28.50 54.08 L 26.22 55.82 C22.81,58.42 22.68,67.68 26.00,71.00 C28.42,73.42 30.52,73.51 35.63,71.41 ZM 51.37 28.70 C53.30,26.12 53.34,25.70 51.95,23.21 C50.08,19.88 47.46,19.27 44.93,21.57 C42.55,23.72 42.51,25.36 44.73,29.12 C46.79,32.61 48.55,32.50 51.37,28.70 Z" fill="rgb(252,254,254)"/>
</g>
</svg>